<svg width="323" height="219" viewBox="0 0 323 219" fill="none" xmlns="http://www.w3.org/2000/svg">
<rect width="323" height="55" fill="#E4A50E"/>
<path d="M126.948 19.1818V33H124.06V21.5568H118.473V33H115.586V19.1818H126.948ZM133.339 27.5685H135.424V28.6683H133.953C133.616 28.6683 133.299 28.7133 133.002 28.8033C132.705 28.8887 132.464 29.0237 132.28 29.2081C132.095 29.388 132.001 29.6197 131.996 29.9031C132.005 30.2179 132.176 30.4946 132.509 30.733C132.842 30.9669 133.319 31.0838 133.94 31.0838C134.583 31.0838 135.062 30.9938 135.377 30.8139C135.692 30.6295 135.874 30.3619 135.923 30.011H138.663C138.645 30.5328 138.507 30.9916 138.251 31.3874C137.999 31.7833 137.662 32.1161 137.239 32.386C136.816 32.6514 136.335 32.8516 135.795 32.9865C135.255 33.1214 134.686 33.1889 134.088 33.1889C133.184 33.1889 132.365 33.0675 131.632 32.8246C130.903 32.5772 130.325 32.2286 129.898 31.7788C129.475 31.329 129.262 30.7959 129.257 30.1797C129.262 29.8108 129.342 29.469 129.5 29.1541C129.657 28.8393 129.9 28.5626 130.229 28.3242C130.557 28.0858 130.978 27.9014 131.49 27.771C132.008 27.636 132.624 27.5685 133.339 27.5685ZM135.424 27.9666H133.339C132.673 27.9666 132.095 27.8991 131.605 27.7642C131.115 27.6248 130.708 27.4381 130.384 27.2042C130.064 26.9703 129.826 26.7049 129.669 26.408C129.511 26.1067 129.432 25.7985 129.432 25.4837C129.432 24.8449 129.633 24.3052 130.033 23.8643C130.433 23.419 130.982 23.0817 131.679 22.8523C132.376 22.6184 133.175 22.5014 134.074 22.5014C134.889 22.5014 135.624 22.6251 136.281 22.8725C136.942 23.1154 137.471 23.4685 137.866 23.9318C138.262 24.3906 138.476 24.9439 138.507 25.5916H135.734C135.694 25.2543 135.509 25.0046 135.181 24.8427C134.857 24.6763 134.441 24.593 133.933 24.593C133.362 24.593 132.927 24.7055 132.631 24.9304C132.338 25.1553 132.19 25.4162 132.185 25.7131C132.19 26.0234 132.347 26.2731 132.658 26.462C132.968 26.6464 133.4 26.7386 133.953 26.7386H135.424V27.9666ZM140.484 36.8594V27.5213C140.484 26.4373 140.675 25.5219 141.058 24.7752C141.445 24.0285 141.991 23.464 142.697 23.0817C143.404 22.6948 144.233 22.5014 145.187 22.5014C146.037 22.5014 146.757 22.6431 147.346 22.9265C147.94 23.2099 148.419 23.6012 148.783 24.1005C149.152 24.5998 149.42 25.1778 149.586 25.8345C149.757 26.4867 149.843 27.1839 149.843 27.9261V28.1151C149.843 29.1316 149.678 30.02 149.35 30.7802C149.026 31.5404 148.558 32.1319 147.947 32.5547C147.335 32.9775 146.602 33.1889 145.747 33.1889C144.937 33.1889 144.285 32.9955 143.79 32.6087C143.296 32.2173 142.909 31.6776 142.63 30.9893C142.355 30.2966 142.137 29.4937 141.975 28.5806L143.257 28.1016C143.257 28.4164 143.284 28.738 143.338 29.0664C143.392 29.3948 143.487 29.6984 143.622 29.9773C143.757 30.2517 143.948 30.4743 144.195 30.6452C144.443 30.8162 144.76 30.9016 145.147 30.9016C145.641 30.9016 146.026 30.7644 146.3 30.4901C146.579 30.2157 146.773 29.8648 146.881 29.4375C146.993 29.0102 147.047 28.5694 147.043 28.1151V27.9261C147.043 27.3774 146.982 26.8713 146.86 26.408C146.739 25.9447 146.536 25.5736 146.253 25.2947C145.974 25.0159 145.592 24.8764 145.106 24.8764C144.656 24.8764 144.294 25.0091 144.02 25.2745C143.75 25.5399 143.554 25.893 143.433 26.3338C143.311 26.7746 143.253 27.2582 143.257 27.7844L143.278 36.8594H140.484ZM151.944 22.6364H154.738L154.704 29.7546C154.708 30.1684 154.803 30.4451 154.987 30.5845C155.176 30.724 155.446 30.7937 155.797 30.7937C155.977 30.7937 156.132 30.7869 156.263 30.7734C156.393 30.7599 156.51 30.7487 156.613 30.7397V32.8516C156.375 32.9325 156.11 32.9978 155.817 33.0472C155.529 33.0967 155.226 33.1214 154.906 33.1214C154.002 33.1214 153.285 32.8875 152.754 32.4197C152.223 31.9519 151.953 31.1783 151.944 30.0987V22.6364ZM152.464 21.2802L153.186 18.0753H155.756L154.157 21.2802H152.464ZM166.638 33.1687C166.013 33.1687 165.468 33.0112 165.005 32.6964C164.546 32.3815 164.198 31.9182 163.959 31.3065L162.205 26.2933L161.072 23.4595L160.68 22.4879C160.527 22.1056 160.368 21.8245 160.201 21.6445C160.039 21.4601 159.835 21.3589 159.587 21.3409C159.344 21.3229 159.02 21.3724 158.616 21.4893L157.968 19.2628C158.202 19.1773 158.442 19.1121 158.69 19.0671C158.942 19.0176 159.212 18.9929 159.499 18.9929C160.359 18.9929 161.099 19.2088 161.719 19.6406C162.34 20.0724 162.806 20.6977 163.116 21.5163L166.28 29.8423C166.429 30.2382 166.564 30.5193 166.685 30.6857C166.807 30.8522 166.991 30.9354 167.238 30.9354C167.288 30.9354 167.34 30.9331 167.394 30.9286C167.448 30.9196 167.493 30.9129 167.529 30.9084L167.785 33.0202C167.655 33.0652 167.479 33.1012 167.259 33.1282C167.043 33.1597 166.836 33.1732 166.638 33.1687ZM157.185 33L161.294 22.1101L163.096 26.8331H162.259L160.14 33H157.185ZM172.275 27.0085V33H169.401V22.6364H172.14V24.4648H172.262C172.496 23.8576 172.882 23.3786 173.422 23.0277C173.962 22.6768 174.614 22.5014 175.379 22.5014C176.103 22.5014 176.733 22.6589 177.268 22.9737C177.803 23.2886 178.217 23.7362 178.51 24.3164C178.806 24.8967 178.955 25.5916 178.955 26.4013V36.8864H176.081V26.9141C176.081 26.2798 175.919 25.785 175.595 25.4297C175.271 25.0698 174.819 24.8899 174.239 24.8899C173.856 24.8899 173.517 24.9731 173.22 25.1396C172.923 25.306 172.691 25.5489 172.525 25.8683C172.358 26.1831 172.275 26.5632 172.275 27.0085ZM181.22 22.6364H183.966V27.5618C183.966 28.4029 184.133 29.0709 184.466 29.5657C184.799 30.056 185.253 30.4068 185.829 30.6183C186.409 30.8252 187.068 30.9286 187.805 30.9286C188.795 30.9286 189.584 30.7779 190.174 30.4766C190.767 30.1752 191.195 29.7614 191.456 29.2351C191.721 28.7043 191.854 28.0971 191.854 27.4134C191.845 27.04 191.813 26.6509 191.759 26.2461C191.71 25.8368 191.638 25.4229 191.543 25.0046C191.453 24.5863 191.345 24.177 191.22 23.7766C191.098 23.3718 190.965 22.9917 190.821 22.6364H193.331C193.498 22.9018 193.655 23.2121 193.804 23.5675C193.957 23.9183 194.089 24.3007 194.202 24.7145C194.319 25.1283 194.411 25.5624 194.478 26.0167C194.546 26.471 194.58 26.9366 194.58 27.4134C194.58 28.169 194.465 28.8932 194.236 29.5859C194.006 30.2741 193.635 30.8904 193.122 31.4347C192.609 31.9789 191.926 32.4085 191.071 32.7234C190.216 33.0337 189.159 33.1889 187.9 33.1889C186.56 33.1889 185.388 32.9955 184.385 32.6087C183.386 32.2173 182.608 31.6056 182.05 30.7734C181.497 29.9413 181.22 28.8617 181.22 27.5348V22.6364ZM186.51 22.6364H189.236V37.4261H186.51V22.6364ZM199.365 27.0085V33H196.491V22.6364H199.23V24.4648H199.352C199.585 23.8576 199.972 23.3786 200.512 23.0277C201.052 22.6768 201.704 22.5014 202.469 22.5014C203.193 22.5014 203.823 22.6589 204.358 22.9737C204.893 23.2886 205.307 23.7362 205.599 24.3164C205.896 24.8967 206.045 25.5916 206.045 26.4013V36.8864H203.17V26.9141C203.17 26.2798 203.009 25.785 202.685 25.4297C202.361 25.0698 201.909 24.8899 201.328 24.8899C200.946 24.8899 200.607 24.9731 200.31 25.1396C200.013 25.306 199.781 25.5489 199.615 25.8683C199.448 26.1831 199.365 26.5632 199.365 27.0085Z" fill="white"/>
<path d="M19.0114 98V86.3636H21.4716V91.1648H26.4659V86.3636H28.9205V98H26.4659V93.1932H21.4716V98H19.0114ZM38.044 98.1818C37.313 98.178 36.6634 97.983 36.0952 97.5966C35.5308 97.2102 35.0876 96.6761 34.7656 95.9943C34.4437 95.3125 34.2827 94.5265 34.2827 93.6364C34.2827 92.75 34.4512 91.9716 34.7884 91.3011C35.1255 90.6307 35.58 90.1061 36.152 89.7273C36.7277 89.3485 37.3717 89.1591 38.0838 89.1591C38.5535 89.1591 38.9796 89.2424 39.3622 89.4091C39.7486 89.5758 40.0819 89.8125 40.3622 90.1193C40.6463 90.4261 40.8698 90.7879 41.0327 91.2045H41.7599L42.3565 93.6136L43.4247 98H41.5611L40.5611 93.6136C40.5043 93.3258 40.4247 93.0341 40.3224 92.7386C40.2202 92.4394 40.0857 92.1648 39.919 91.9148C39.7562 91.6648 39.5554 91.464 39.3168 91.3125C39.0781 91.161 38.7978 91.0852 38.4759 91.0852C38.0933 91.0852 37.7637 91.1951 37.4872 91.4148C37.2107 91.6307 36.9986 91.928 36.8509 92.3068C36.7031 92.6856 36.6293 93.1231 36.6293 93.6193C36.6293 94.1193 36.7031 94.5644 36.8509 94.9545C37.0024 95.3447 37.2107 95.6534 37.4759 95.8807C37.741 96.1042 38.0497 96.2159 38.402 96.2159C38.705 96.2159 38.9777 96.1364 39.2202 95.9773C39.4626 95.8144 39.6728 95.6042 39.8509 95.3466C40.0327 95.089 40.1823 94.8125 40.2997 94.517C40.4209 94.2178 40.508 93.9318 40.5611 93.6591L41.4759 89.2727H43.3111L42.3565 93.6591L41.7599 96.0114H41.0611C40.902 96.4242 40.688 96.7955 40.419 97.125C40.1501 97.4508 39.8187 97.7083 39.4247 97.8977C39.0308 98.0871 38.5705 98.1818 38.044 98.1818ZM54.8068 89.2727V91.0568H45.0795V89.2727H54.8068ZM48.8352 89.2727V98H46.483V89.2727H48.8352ZM51.0568 89.2727H53.392V95.267C53.3958 95.4981 53.4318 95.678 53.5 95.8068C53.5682 95.9318 53.6705 96.0189 53.8068 96.0682C53.9432 96.1174 54.1136 96.142 54.3182 96.142C54.4508 96.142 54.5758 96.1364 54.6932 96.125C54.8106 96.1136 54.9129 96.1042 55 96.0966V97.875C54.7992 97.9394 54.5777 97.9924 54.3352 98.0341C54.0966 98.0795 53.8352 98.1023 53.5511 98.1023C52.7898 98.1023 52.1837 97.9053 51.733 97.5114C51.286 97.1174 51.0606 96.4659 51.0568 95.5568V89.2727ZM60.9091 98.1705C60.0265 98.1705 59.2633 97.983 58.6193 97.608C57.9792 97.2292 57.4848 96.7027 57.1364 96.0284C56.7879 95.3504 56.6136 94.5644 56.6136 93.6705C56.6136 92.7689 56.7879 91.9811 57.1364 91.3068C57.4848 90.6288 57.9792 90.1023 58.6193 89.7273C59.2633 89.3485 60.0265 89.1591 60.9091 89.1591C61.7917 89.1591 62.553 89.3485 63.1932 89.7273C63.8371 90.1023 64.3333 90.6288 64.6818 91.3068C65.0303 91.9811 65.2045 92.7689 65.2045 93.6705C65.2045 94.5644 65.0303 95.3504 64.6818 96.0284C64.3333 96.7027 63.8371 97.2292 63.1932 97.608C62.553 97.983 61.7917 98.1705 60.9091 98.1705ZM60.9205 96.2955C61.322 96.2955 61.6572 96.1818 61.9261 95.9545C62.1951 95.7235 62.3977 95.4091 62.5341 95.0114C62.6742 94.6136 62.7443 94.161 62.7443 93.6534C62.7443 93.1458 62.6742 92.6932 62.5341 92.2955C62.3977 91.8977 62.1951 91.5833 61.9261 91.3523C61.6572 91.1212 61.322 91.0057 60.9205 91.0057C60.5152 91.0057 60.1742 91.1212 59.8977 91.3523C59.625 91.5833 59.4186 91.8977 59.2784 92.2955C59.142 92.6932 59.0739 93.1458 59.0739 93.6534C59.0739 94.161 59.142 94.6136 59.2784 95.0114C59.4186 95.4091 59.625 95.7235 59.8977 95.9545C60.1742 96.1818 60.5152 96.2955 60.9205 96.2955ZM66.8125 93.8636V93.6818C66.8163 92.8977 66.9773 92.1932 67.2955 91.5682C67.6136 90.9432 68.0777 90.4508 68.6875 90.0909C69.2973 89.7273 70.0436 89.5455 70.9261 89.5455C71.0511 89.6136 71.1686 89.7348 71.2784 89.9091C71.392 90.0795 71.5398 90.2557 71.7216 90.4375C71.9034 90.6155 72.1572 90.7557 72.483 90.858C72.8958 90.9943 73.2879 91.2178 73.6591 91.5284C74.0341 91.839 74.339 92.2102 74.5739 92.642C74.8125 93.0701 74.9299 93.5303 74.9261 94.0227V94.1818C74.9299 94.928 74.7746 95.6023 74.4602 96.2045C74.1496 96.803 73.6989 97.2784 73.108 97.6307C72.517 97.983 71.7973 98.1591 70.9489 98.1591C70.0663 98.1591 69.3163 97.9716 68.6989 97.5966C68.0852 97.2178 67.6174 96.7045 67.2955 96.0568C66.9773 95.4091 66.8163 94.678 66.8125 93.8636ZM69.2102 93.6818V93.8636C69.214 94.303 69.2689 94.7045 69.375 95.0682C69.4848 95.4318 69.6648 95.7216 69.9148 95.9375C70.1686 96.1496 70.5133 96.2557 70.9489 96.2557C71.3428 96.2557 71.6534 96.1496 71.8807 95.9375C72.1117 95.7216 72.2765 95.4318 72.375 95.0682C72.4773 94.7045 72.5284 94.303 72.5284 93.8636V93.6818C72.5284 93.2803 72.4773 92.911 72.375 92.5739C72.2765 92.233 72.1098 91.9602 71.875 91.7557C71.6439 91.5511 71.3277 91.4489 70.9261 91.4489C70.5095 91.4489 70.1761 91.5511 69.9261 91.7557C69.6761 91.9602 69.4943 92.233 69.3807 92.5739C69.2708 92.911 69.214 93.2803 69.2102 93.6818ZM75.5455 89.5455V91.4489H70.9261V89.5455H75.5455ZM84.9957 89.2727V91.1648H77.0866V89.2727H84.9957ZM79.7628 89.2727H82.1094V95.3523C82.1094 95.5833 82.1397 95.7633 82.2003 95.892C82.2647 96.017 82.3537 96.1061 82.4673 96.1591C82.581 96.2083 82.7135 96.233 82.8651 96.233C83.0431 96.233 83.187 96.2216 83.2969 96.1989C83.4067 96.1761 83.5241 96.1496 83.6491 96.1193L83.8935 97.9091C83.651 98.0076 83.4143 98.0739 83.1832 98.108C82.956 98.142 82.6908 98.1591 82.3878 98.1591C81.5582 98.1591 80.9124 97.928 80.4503 97.4659C79.992 97 79.7628 96.2917 79.7628 95.3409V89.2727ZM90.4247 98.1705C89.5421 98.1705 88.7789 97.983 88.1349 97.608C87.4948 97.2292 87.0005 96.7027 86.652 96.0284C86.3035 95.3504 86.1293 94.5644 86.1293 93.6705C86.1293 92.7689 86.3035 91.9811 86.652 91.3068C87.0005 90.6288 87.4948 90.1023 88.1349 89.7273C88.7789 89.3485 89.5421 89.1591 90.4247 89.1591C91.3073 89.1591 92.0687 89.3485 92.7088 89.7273C93.3527 90.1023 93.849 90.6288 94.1974 91.3068C94.5459 91.9811 94.7202 92.7689 94.7202 93.6705C94.7202 94.5644 94.5459 95.3504 94.1974 96.0284C93.849 96.7027 93.3527 97.2292 92.7088 97.608C92.0687 97.983 91.3073 98.1705 90.4247 98.1705ZM90.4361 96.2955C90.8376 96.2955 91.1728 96.1818 91.4418 95.9545C91.7107 95.7235 91.9134 95.4091 92.0497 95.0114C92.1899 94.6136 92.2599 94.161 92.2599 93.6534C92.2599 93.1458 92.1899 92.6932 92.0497 92.2955C91.9134 91.8977 91.7107 91.5833 91.4418 91.3523C91.1728 91.1212 90.8376 91.0057 90.4361 91.0057C90.0308 91.0057 89.6899 91.1212 89.4134 91.3523C89.1406 91.5833 88.9342 91.8977 88.794 92.2955C88.6577 92.6932 88.5895 93.1458 88.5895 93.6534C88.5895 94.161 88.6577 94.6136 88.794 95.0114C88.9342 95.4091 89.1406 95.7235 89.4134 95.9545C89.6899 96.1818 90.0308 96.2955 90.4361 96.2955ZM103.686 98.142C103.16 98.142 102.701 98.0095 102.311 97.7443C101.925 97.4792 101.631 97.089 101.43 96.5739L99.9531 92.3523L98.9986 89.9659L98.669 89.1477C98.5402 88.8258 98.4058 88.589 98.2656 88.4375C98.1293 88.2822 97.9569 88.197 97.7486 88.1818C97.544 88.1667 97.2713 88.2083 96.9304 88.3068L96.3849 86.4318C96.5819 86.3598 96.7846 86.3049 96.9929 86.267C97.205 86.2254 97.4323 86.2045 97.6747 86.2045C98.3982 86.2045 99.0213 86.3864 99.544 86.75C100.067 87.1136 100.459 87.6402 100.72 88.3295L103.385 95.3409C103.51 95.6742 103.624 95.911 103.726 96.0511C103.828 96.1913 103.983 96.2614 104.192 96.2614C104.233 96.2614 104.277 96.2595 104.322 96.2557C104.368 96.2481 104.406 96.2424 104.436 96.2386L104.652 98.017C104.542 98.0549 104.394 98.0852 104.209 98.108C104.027 98.1345 103.853 98.1458 103.686 98.142ZM95.7259 98L99.1861 88.8295L100.703 92.8068H99.9986L98.2145 98H95.7259ZM108.433 92.9545V98H106.013V89.2727H108.32V90.8125H108.422C108.619 90.3011 108.945 89.8977 109.399 89.6023C109.854 89.3068 110.403 89.1591 111.047 89.1591C111.657 89.1591 112.187 89.2917 112.638 89.5568C113.089 89.822 113.437 90.1989 113.683 90.6875C113.933 91.1761 114.058 91.7614 114.058 92.4432V101.273H111.638V92.875C111.638 92.3409 111.501 91.9242 111.229 91.625C110.956 91.322 110.575 91.1705 110.087 91.1705C109.765 91.1705 109.479 91.2405 109.229 91.3807C108.979 91.5208 108.784 91.7254 108.643 91.9943C108.503 92.2595 108.433 92.5795 108.433 92.9545ZM109.286 88.1307L109.893 85.4318H112.058L110.712 88.1307H109.286ZM119.703 93.8636V93.6818C119.707 92.8977 119.868 92.1932 120.186 91.5682C120.504 90.9432 120.968 90.4508 121.578 90.0909C122.188 89.7273 122.934 89.5455 123.817 89.5455C123.942 89.6136 124.059 89.7348 124.169 89.9091C124.283 90.0795 124.43 90.2557 124.612 90.4375C124.794 90.6155 125.048 90.7557 125.374 90.858C125.786 90.9943 126.179 91.2178 126.55 91.5284C126.925 91.839 127.23 92.2102 127.464 92.642C127.703 93.0701 127.821 93.5303 127.817 94.0227V94.1818C127.821 94.928 127.665 95.6023 127.351 96.2045C127.04 96.803 126.589 97.2784 125.999 97.6307C125.408 97.983 124.688 98.1591 123.839 98.1591C122.957 98.1591 122.207 97.9716 121.589 97.5966C120.976 97.2178 120.508 96.7045 120.186 96.0568C119.868 95.4091 119.707 94.678 119.703 93.8636ZM122.101 93.6818V93.8636C122.105 94.303 122.16 94.7045 122.266 95.0682C122.375 95.4318 122.555 95.7216 122.805 95.9375C123.059 96.1496 123.404 96.2557 123.839 96.2557C124.233 96.2557 124.544 96.1496 124.771 95.9375C125.002 95.7216 125.167 95.4318 125.266 95.0682C125.368 94.7045 125.419 94.303 125.419 93.8636V93.6818C125.419 93.2803 125.368 92.911 125.266 92.5739C125.167 92.233 125 91.9602 124.766 91.7557C124.535 91.5511 124.218 91.4489 123.817 91.4489C123.4 91.4489 123.067 91.5511 122.817 91.7557C122.567 91.9602 122.385 92.233 122.271 92.5739C122.161 92.911 122.105 93.2803 122.101 93.6818ZM128.436 89.5455V91.4489H123.817V89.5455H128.436ZM133.841 98.1818C133.11 98.178 132.46 97.983 131.892 97.5966C131.328 97.2102 130.884 96.6761 130.562 95.9943C130.241 95.3125 130.08 94.5265 130.08 93.6364C130.08 92.75 130.248 91.9716 130.585 91.3011C130.922 90.6307 131.377 90.1061 131.949 89.7273C132.525 89.3485 133.169 89.1591 133.881 89.1591C134.35 89.1591 134.777 89.2424 135.159 89.4091C135.545 89.5758 135.879 89.8125 136.159 90.1193C136.443 90.4261 136.667 90.7879 136.83 91.2045H137.557L138.153 93.6136L139.222 98H137.358L136.358 93.6136C136.301 93.3258 136.222 93.0341 136.119 92.7386C136.017 92.4394 135.883 92.1648 135.716 91.9148C135.553 91.6648 135.352 91.464 135.114 91.3125C134.875 91.161 134.595 91.0852 134.273 91.0852C133.89 91.0852 133.561 91.1951 133.284 91.4148C133.008 91.6307 132.795 91.928 132.648 92.3068C132.5 92.6856 132.426 93.1231 132.426 93.6193C132.426 94.1193 132.5 94.5644 132.648 94.9545C132.799 95.3447 133.008 95.6534 133.273 95.8807C133.538 96.1042 133.847 96.2159 134.199 96.2159C134.502 96.2159 134.775 96.1364 135.017 95.9773C135.259 95.8144 135.47 95.6042 135.648 95.3466C135.83 95.089 135.979 94.8125 136.097 94.517C136.218 94.2178 136.305 93.9318 136.358 93.6591L137.273 89.2727H139.108L138.153 93.6591L137.557 96.0114H136.858C136.699 96.4242 136.485 96.7955 136.216 97.125C135.947 97.4508 135.616 97.7083 135.222 97.8977C134.828 98.0871 134.367 98.1818 133.841 98.1818ZM144.7 89.1591C145.439 89.1591 146.073 89.3011 146.604 89.5852C147.138 89.8693 147.549 90.2784 147.837 90.8125C148.128 91.3428 148.274 91.9811 148.274 92.7273H146.03C146.03 92.1705 145.914 91.7538 145.683 91.4773C145.456 91.2008 145.125 91.0625 144.689 91.0625C144.325 91.0625 144.017 91.1648 143.763 91.3693C143.509 91.5701 143.318 91.8655 143.189 92.2557C143.06 92.642 142.996 93.1136 142.996 93.6705V93.875C142.996 94.2992 143.062 94.6553 143.195 94.9432C143.327 95.2311 143.543 95.4716 143.842 95.6648C144.142 95.8542 144.539 96.017 145.036 96.1534C145.702 96.3352 146.212 96.5246 146.564 96.7216C146.916 96.9148 147.157 97.1231 147.286 97.3466C147.418 97.5701 147.484 97.8182 147.484 98.0909C147.484 98.6439 147.303 99.1591 146.939 99.6364C146.579 100.114 146.14 100.545 145.621 100.932L144.382 100.023C144.628 99.7689 144.814 99.536 144.939 99.3239C145.068 99.1117 145.132 98.9091 145.132 98.7159C145.132 98.5265 145.07 98.3712 144.945 98.25C144.823 98.1326 144.607 98.036 144.297 97.9602C143.445 97.733 142.75 97.4432 142.212 97.0909C141.678 96.7348 141.284 96.2936 141.03 95.767C140.776 95.2367 140.649 94.6061 140.649 93.875V93.6705C140.649 92.7424 140.81 91.9413 141.132 91.267C141.458 90.5928 141.924 90.0739 142.53 89.7102C143.136 89.3428 143.859 89.1591 144.7 89.1591ZM151.443 98.1477C151.068 98.1477 150.746 98.0152 150.477 97.75C150.212 97.4811 150.08 97.1591 150.08 96.7841C150.08 96.4129 150.212 96.0947 150.477 95.8295C150.746 95.5644 151.068 95.4318 151.443 95.4318C151.807 95.4318 152.125 95.5644 152.398 95.8295C152.67 96.0947 152.807 96.4129 152.807 96.7841C152.807 97.0341 152.742 97.2633 152.614 97.4716C152.489 97.6761 152.324 97.8409 152.119 97.9659C151.915 98.0871 151.689 98.1477 151.443 98.1477ZM151.443 92.0341C151.068 92.0341 150.746 91.9015 150.477 91.6364C150.212 91.3712 150.08 91.0492 150.08 90.6705C150.08 90.2992 150.212 89.983 150.477 89.7216C150.746 89.4564 151.068 89.3239 151.443 89.3239C151.807 89.3239 152.125 89.4564 152.398 89.7216C152.67 89.983 152.807 90.2992 152.807 90.6705C152.807 90.9242 152.742 91.1553 152.614 91.3636C152.489 91.5682 152.324 91.7311 152.119 91.8523C151.915 91.9735 151.689 92.0341 151.443 92.0341Z" fill="black"/>
<path d="M25.7386 138.58H23.8807C22.9186 138.58 22.0663 138.403 21.3239 138.051C20.5852 137.699 20.0057 137.201 19.5852 136.557C19.1648 135.913 18.9545 135.15 18.9545 134.267C18.9583 133.354 19.1686 132.562 19.5852 131.892C20.0019 131.222 20.5795 130.703 21.3182 130.335C22.0606 129.968 22.9129 129.784 23.875 129.784H25.733C26.6951 129.784 27.5436 129.966 28.2784 130.33C29.0133 130.693 29.5871 131.208 30 131.875C30.4167 132.542 30.625 133.331 30.625 134.244C30.6288 135.123 30.4223 135.888 30.0057 136.54C29.5928 137.187 29.017 137.689 28.2784 138.045C27.5436 138.402 26.697 138.58 25.7386 138.58ZM23.8807 136.443H25.75C26.2424 136.443 26.6799 136.36 27.0625 136.193C27.4489 136.027 27.7519 135.782 27.9716 135.46C28.1951 135.134 28.3068 134.729 28.3068 134.244C28.3106 133.722 28.2008 133.288 27.9773 132.943C27.7576 132.598 27.4545 132.341 27.0682 132.17C26.6818 131.996 26.2443 131.909 25.7557 131.909H23.875C23.3902 131.909 22.9527 131.998 22.5625 132.176C22.1723 132.35 21.8636 132.612 21.6364 132.96C21.4129 133.309 21.3011 133.744 21.3011 134.267C21.3011 134.752 21.4129 135.155 21.6364 135.477C21.8636 135.795 22.1723 136.036 22.5625 136.199C22.9527 136.362 23.392 136.443 23.8807 136.443ZM26 128.364V140H23.642V128.364H26ZM42.4815 128.364V140H40.0497V130.364H35.3452V140H32.9134V128.364H42.4815ZM46.8295 140H44.1932L48.2102 128.364H51.3807L55.392 140H52.7557L49.8409 131.023H49.75L46.8295 140ZM46.6648 135.426H52.892V137.347H46.6648V135.426ZM58.1619 138.648C57.7869 138.648 57.465 138.515 57.196 138.25C56.9309 137.985 56.7983 137.663 56.7983 137.284C56.7983 136.913 56.9309 136.595 57.196 136.33C57.465 136.064 57.7869 135.932 58.1619 135.932C58.5256 135.932 58.8438 136.064 59.1165 136.33C59.3892 136.595 59.5256 136.913 59.5256 137.284C59.5256 137.534 59.4612 137.763 59.3324 137.972C59.2074 138.176 59.0426 138.341 58.8381 138.466C58.6335 138.587 58.4081 138.648 58.1619 138.648ZM58.1619 132.938C57.7869 132.938 57.465 132.805 57.196 132.54C56.9309 132.275 56.7983 131.953 56.7983 131.574C56.7983 131.203 56.9309 130.886 57.196 130.625C57.465 130.36 57.7869 130.227 58.1619 130.227C58.5256 130.227 58.8438 130.36 59.1165 130.625C59.3892 130.886 59.5256 131.203 59.5256 131.574C59.5256 131.828 59.4612 132.059 59.3324 132.267C59.2074 132.472 59.0426 132.634 58.8381 132.756C58.6335 132.877 58.4081 132.938 58.1619 132.938Z" fill="black"/>
<path d="M27.5341 200.972V203H20.1591V200.972H27.5341ZM27.3636 191.409V193.449H20.4205V191.409H27.3636ZM25.3523 197.142V197.261L21.1818 203H19.2216V201.807L22.7386 197.205L19.2216 192.614V191.409H21.1818L25.3523 197.142ZM29.0952 191.364H31.8509L34.5043 196.375H34.6179L37.2713 191.364H40.027L35.7827 198.886V203H33.3395V198.886L29.0952 191.364ZM51.1037 191.364V203H48.9787L43.9162 195.676H43.831V203H41.3707V191.364H43.5298L48.5526 198.682H48.6548V191.364H51.1037ZM63.8295 197.182C63.8295 198.451 63.589 199.53 63.108 200.42C62.6307 201.311 61.9792 201.991 61.1534 202.46C60.3314 202.926 59.4072 203.159 58.3807 203.159C57.3466 203.159 56.4186 202.924 55.5966 202.455C54.7746 201.985 54.125 201.305 53.6477 200.415C53.1705 199.525 52.9318 198.447 52.9318 197.182C52.9318 195.913 53.1705 194.833 53.6477 193.943C54.125 193.053 54.7746 192.375 55.5966 191.909C56.4186 191.439 57.3466 191.205 58.3807 191.205C59.4072 191.205 60.3314 191.439 61.1534 191.909C61.9792 192.375 62.6307 193.053 63.108 193.943C63.589 194.833 63.8295 195.913 63.8295 197.182ZM61.3352 197.182C61.3352 196.36 61.2121 195.667 60.9659 195.102C60.7235 194.538 60.3807 194.11 59.9375 193.818C59.4943 193.527 58.9754 193.381 58.3807 193.381C57.786 193.381 57.267 193.527 56.8239 193.818C56.3807 194.11 56.036 194.538 55.7898 195.102C55.5473 195.667 55.4261 196.36 55.4261 197.182C55.4261 198.004 55.5473 198.697 55.7898 199.261C56.036 199.826 56.3807 200.254 56.8239 200.545C57.267 200.837 57.786 200.983 58.3807 200.983C58.9754 200.983 59.4943 200.837 59.9375 200.545C60.3807 200.254 60.7235 199.826 60.9659 199.261C61.2121 198.697 61.3352 198.004 61.3352 197.182ZM67.0014 203H64.3651L68.3821 191.364H71.5526L75.5639 203H72.9276L70.0128 194.023H69.9219L67.0014 203ZM87.1108 197.182C87.1108 198.451 86.8703 199.53 86.3892 200.42C85.9119 201.311 85.2604 201.991 84.4347 202.46C83.6127 202.926 82.6884 203.159 81.6619 203.159C80.6278 203.159 79.6998 202.924 78.8778 202.455C78.0559 201.985 77.4063 201.305 76.929 200.415C76.4517 199.525 76.2131 198.447 76.2131 197.182C76.2131 195.913 76.4517 194.833 76.929 193.943C77.4063 193.053 78.0559 192.375 78.8778 191.909C79.6998 191.439 80.6278 191.205 81.6619 191.205C82.6884 191.205 83.6127 191.439 84.4347 191.909C85.2604 192.375 85.9119 193.053 86.3892 193.943C86.8703 194.833 87.1108 195.913 87.1108 197.182ZM84.6165 197.182C84.6165 196.36 84.4934 195.667 84.2472 195.102C84.0047 194.538 83.6619 194.11 83.2188 193.818C82.7756 193.527 82.2566 193.381 81.6619 193.381C81.0672 193.381 80.5483 193.527 80.1051 193.818C79.6619 194.11 79.3172 194.538 79.071 195.102C78.8286 195.667 78.7074 196.36 78.7074 197.182C78.7074 198.004 78.8286 198.697 79.071 199.261C79.3172 199.826 79.6619 200.254 80.1051 200.545C80.5483 200.837 81.0672 200.983 81.6619 200.983C82.2566 200.983 82.7756 200.837 83.2188 200.545C83.6619 200.254 84.0047 199.826 84.2472 199.261C84.4934 198.697 84.6165 198.004 84.6165 197.182ZM90.3026 201.648C89.9276 201.648 89.6056 201.515 89.3366 201.25C89.0715 200.985 88.9389 200.663 88.9389 200.284C88.9389 199.913 89.0715 199.595 89.3366 199.33C89.6056 199.064 89.9276 198.932 90.3026 198.932C90.6662 198.932 90.9844 199.064 91.2571 199.33C91.5298 199.595 91.6662 199.913 91.6662 200.284C91.6662 200.534 91.6018 200.763 91.473 200.972C91.348 201.176 91.1832 201.341 90.9787 201.466C90.7741 201.587 90.5488 201.648 90.3026 201.648ZM90.3026 195.938C89.9276 195.938 89.6056 195.805 89.3366 195.54C89.0715 195.275 88.9389 194.953 88.9389 194.574C88.9389 194.203 89.0715 193.886 89.3366 193.625C89.6056 193.36 89.9276 193.227 90.3026 193.227C90.6662 193.227 90.9844 193.36 91.2571 193.625C91.5298 193.886 91.6662 194.203 91.6662 194.574C91.6662 194.828 91.6018 195.059 91.473 195.267C91.348 195.472 91.1832 195.634 90.9787 195.756C90.7741 195.877 90.5488 195.938 90.3026 195.938Z" fill="black"/>
<path d="M256.205 98V96.9773L260.045 92.7727C260.496 92.2803 260.867 91.8523 261.159 91.4886C261.451 91.1212 261.667 90.7765 261.807 90.4545C261.951 90.1288 262.023 89.7879 262.023 89.4318C262.023 89.0227 261.924 88.6686 261.727 88.3693C261.534 88.0701 261.269 87.839 260.932 87.6761C260.595 87.5133 260.216 87.4318 259.795 87.4318C259.348 87.4318 258.958 87.5246 258.625 87.7102C258.295 87.892 258.04 88.1477 257.858 88.4773C257.68 88.8068 257.591 89.1932 257.591 89.6364H256.25C256.25 88.9545 256.407 88.3561 256.722 87.8409C257.036 87.3258 257.464 86.9242 258.006 86.6364C258.551 86.3485 259.163 86.2045 259.841 86.2045C260.523 86.2045 261.127 86.3485 261.653 86.6364C262.18 86.9242 262.593 87.3125 262.892 87.8011C263.191 88.2898 263.341 88.8333 263.341 89.4318C263.341 89.8598 263.263 90.2784 263.108 90.6875C262.956 91.0928 262.691 91.5455 262.312 92.0455C261.938 92.5417 261.417 93.1477 260.75 93.8636L258.136 96.6591V96.75H263.545V98H256.205ZM267.915 96.4091L267.824 97.0227C267.759 97.4545 267.661 97.9167 267.528 98.4091C267.4 98.9015 267.265 99.3655 267.125 99.8011C266.985 100.237 266.869 100.583 266.778 100.841H265.756C265.805 100.598 265.869 100.278 265.949 99.8807C266.028 99.483 266.108 99.0379 266.188 98.5455C266.271 98.0568 266.339 97.5568 266.392 97.0455L266.46 96.4091H267.915ZM273.766 98.1591C272.91 98.1591 272.18 97.9261 271.578 97.4602C270.976 96.9905 270.516 96.3106 270.197 95.4205C269.879 94.5265 269.72 93.447 269.72 92.1818C269.72 90.9242 269.879 89.8504 270.197 88.9602C270.519 88.0663 270.982 87.3845 271.584 86.9148C272.19 86.4413 272.917 86.2045 273.766 86.2045C274.614 86.2045 275.339 86.4413 275.942 86.9148C276.548 87.3845 277.01 88.0663 277.328 88.9602C277.65 89.8504 277.811 90.9242 277.811 92.1818C277.811 93.447 277.652 94.5265 277.334 95.4205C277.016 96.3106 276.555 96.9905 275.953 97.4602C275.351 97.9261 274.622 98.1591 273.766 98.1591ZM273.766 96.9091C274.614 96.9091 275.273 96.5 275.743 95.6818C276.213 94.8636 276.447 93.697 276.447 92.1818C276.447 91.1742 276.339 90.3163 276.124 89.608C275.911 88.8996 275.605 88.3598 275.203 87.9886C274.805 87.6174 274.326 87.4318 273.766 87.4318C272.925 87.4318 272.268 87.8466 271.794 88.6761C271.321 89.5019 271.084 90.6705 271.084 92.1818C271.084 93.1894 271.19 94.0455 271.402 94.75C271.614 95.4545 271.919 95.9905 272.317 96.358C272.718 96.7254 273.201 96.9091 273.766 96.9091ZM283.766 98.1591C282.91 98.1591 282.18 97.9261 281.578 97.4602C280.976 96.9905 280.516 96.3106 280.197 95.4205C279.879 94.5265 279.72 93.447 279.72 92.1818C279.72 90.9242 279.879 89.8504 280.197 88.9602C280.519 88.0663 280.982 87.3845 281.584 86.9148C282.19 86.4413 282.917 86.2045 283.766 86.2045C284.614 86.2045 285.339 86.4413 285.942 86.9148C286.548 87.3845 287.01 88.0663 287.328 88.9602C287.65 89.8504 287.811 90.9242 287.811 92.1818C287.811 93.447 287.652 94.5265 287.334 95.4205C287.016 96.3106 286.555 96.9905 285.953 97.4602C285.351 97.9261 284.622 98.1591 283.766 98.1591ZM283.766 96.9091C284.614 96.9091 285.273 96.5 285.743 95.6818C286.213 94.8636 286.447 93.697 286.447 92.1818C286.447 91.1742 286.339 90.3163 286.124 89.608C285.911 88.8996 285.605 88.3598 285.203 87.9886C284.805 87.6174 284.326 87.4318 283.766 87.4318C282.925 87.4318 282.268 87.8466 281.794 88.6761C281.321 89.5019 281.084 90.6705 281.084 92.1818C281.084 93.1894 281.19 94.0455 281.402 94.75C281.614 95.4545 281.919 95.9905 282.317 96.358C282.718 96.7254 283.201 96.9091 283.766 96.9091ZM297.107 90.4773L296.584 91.6136H289.175L289.584 90.4773H297.107ZM296.129 92.75L295.607 93.8864H289.175L289.584 92.75H296.129ZM298.447 87.4091L297.902 88.5909C297.66 88.3712 297.404 88.1818 297.135 88.0227C296.866 87.8636 296.584 87.7405 296.288 87.6534C295.993 87.5663 295.682 87.5227 295.357 87.5227C294.713 87.5227 294.133 87.7008 293.618 88.0568C293.103 88.4129 292.696 88.9375 292.396 89.6307C292.097 90.3239 291.947 91.1742 291.947 92.1818C291.947 93.1894 292.097 94.0398 292.396 94.733C292.696 95.4261 293.103 95.9508 293.618 96.3068C294.133 96.6629 294.713 96.8409 295.357 96.8409C295.69 96.8409 296.004 96.7973 296.3 96.7102C296.599 96.6231 296.877 96.5038 297.135 96.3523C297.396 96.2008 297.637 96.0303 297.857 95.8409L298.425 97.0227C298.027 97.3977 297.561 97.6818 297.027 97.875C296.493 98.0644 295.936 98.1591 295.357 98.1591C294.425 98.1591 293.599 97.9167 292.879 97.4318C292.163 96.947 291.601 96.2576 291.192 95.3636C290.786 94.4697 290.584 93.4091 290.584 92.1818C290.584 90.9545 290.786 89.8939 291.192 89C291.601 88.1061 292.163 87.4167 292.879 86.9318C293.599 86.447 294.425 86.2045 295.357 86.2045C295.959 86.2045 296.521 86.3087 297.044 86.517C297.571 86.7254 298.038 87.0227 298.447 87.4091Z" fill="black"/>
<path d="M260 140.159C259.144 140.159 258.415 139.926 257.812 139.46C257.21 138.991 256.75 138.311 256.432 137.42C256.114 136.527 255.955 135.447 255.955 134.182C255.955 132.924 256.114 131.85 256.432 130.96C256.754 130.066 257.216 129.384 257.818 128.915C258.424 128.441 259.152 128.205 260 128.205C260.848 128.205 261.574 128.441 262.176 128.915C262.782 129.384 263.244 130.066 263.562 130.96C263.884 131.85 264.045 132.924 264.045 134.182C264.045 135.447 263.886 136.527 263.568 137.42C263.25 138.311 262.79 138.991 262.188 139.46C261.585 139.926 260.856 140.159 260 140.159ZM260 138.909C260.848 138.909 261.508 138.5 261.977 137.682C262.447 136.864 262.682 135.697 262.682 134.182C262.682 133.174 262.574 132.316 262.358 131.608C262.146 130.9 261.839 130.36 261.438 129.989C261.04 129.617 260.561 129.432 260 129.432C259.159 129.432 258.502 129.847 258.028 130.676C257.555 131.502 257.318 132.67 257.318 134.182C257.318 135.189 257.424 136.045 257.636 136.75C257.848 137.455 258.153 137.991 258.551 138.358C258.953 138.725 259.436 138.909 260 138.909ZM267.821 138.409L267.73 139.023C267.666 139.455 267.567 139.917 267.435 140.409C267.306 140.902 267.171 141.366 267.031 141.801C266.891 142.237 266.776 142.583 266.685 142.841H265.662C265.711 142.598 265.776 142.278 265.855 141.881C265.935 141.483 266.014 141.038 266.094 140.545C266.177 140.057 266.245 139.557 266.298 139.045L266.366 138.409H267.821ZM273.651 140.159C272.87 140.159 272.181 140.021 271.582 139.744C270.988 139.464 270.524 139.08 270.19 138.591C269.857 138.098 269.692 137.538 269.696 136.909C269.692 136.417 269.789 135.962 269.986 135.545C270.183 135.125 270.452 134.775 270.793 134.494C271.137 134.21 271.522 134.03 271.946 133.955V133.886C271.389 133.742 270.946 133.43 270.616 132.949C270.287 132.464 270.124 131.913 270.128 131.295C270.124 130.705 270.274 130.176 270.577 129.71C270.88 129.244 271.296 128.877 271.827 128.608C272.361 128.339 272.969 128.205 273.651 128.205C274.325 128.205 274.927 128.339 275.457 128.608C275.988 128.877 276.404 129.244 276.707 129.71C277.014 130.176 277.17 130.705 277.173 131.295C277.17 131.913 277.001 132.464 276.668 132.949C276.338 133.43 275.901 133.742 275.355 133.886V133.955C275.776 134.03 276.154 134.21 276.491 134.494C276.829 134.775 277.098 135.125 277.298 135.545C277.499 135.962 277.601 136.417 277.605 136.909C277.601 137.538 277.431 138.098 277.094 138.591C276.76 139.08 276.296 139.464 275.702 139.744C275.111 140.021 274.427 140.159 273.651 140.159ZM273.651 138.909C274.177 138.909 274.632 138.824 275.014 138.653C275.397 138.483 275.692 138.242 275.901 137.932C276.109 137.621 276.215 137.258 276.219 136.841C276.215 136.402 276.101 136.013 275.878 135.676C275.654 135.339 275.349 135.074 274.963 134.881C274.58 134.687 274.143 134.591 273.651 134.591C273.154 134.591 272.711 134.687 272.321 134.881C271.935 135.074 271.63 135.339 271.406 135.676C271.187 136.013 271.079 136.402 271.082 136.841C271.079 137.258 271.179 137.621 271.384 137.932C271.592 138.242 271.889 138.483 272.276 138.653C272.662 138.824 273.12 138.909 273.651 138.909ZM273.651 133.386C274.067 133.386 274.437 133.303 274.759 133.136C275.084 132.97 275.34 132.737 275.526 132.438C275.711 132.138 275.806 131.788 275.81 131.386C275.806 130.992 275.713 130.65 275.531 130.358C275.349 130.062 275.098 129.835 274.776 129.676C274.454 129.513 274.079 129.432 273.651 129.432C273.215 129.432 272.834 129.513 272.509 129.676C272.183 129.835 271.931 130.062 271.753 130.358C271.575 130.65 271.488 130.992 271.491 131.386C271.488 131.788 271.577 132.138 271.759 132.438C271.944 132.737 272.2 132.97 272.526 133.136C272.851 133.303 273.226 133.386 273.651 133.386ZM280.146 140L285.351 129.705V129.614H279.351V128.364H286.805V129.682L281.624 140H280.146ZM296.06 132.477L295.537 133.614H288.128L288.537 132.477H296.06ZM295.082 134.75L294.56 135.886H288.128L288.537 134.75H295.082ZM297.401 129.409L296.855 130.591C296.613 130.371 296.357 130.182 296.088 130.023C295.819 129.864 295.537 129.741 295.241 129.653C294.946 129.566 294.635 129.523 294.31 129.523C293.666 129.523 293.086 129.701 292.571 130.057C292.056 130.413 291.649 130.938 291.349 131.631C291.05 132.324 290.901 133.174 290.901 134.182C290.901 135.189 291.05 136.04 291.349 136.733C291.649 137.426 292.056 137.951 292.571 138.307C293.086 138.663 293.666 138.841 294.31 138.841C294.643 138.841 294.957 138.797 295.253 138.71C295.552 138.623 295.83 138.504 296.088 138.352C296.349 138.201 296.59 138.03 296.81 137.841L297.378 139.023C296.98 139.398 296.514 139.682 295.98 139.875C295.446 140.064 294.889 140.159 294.31 140.159C293.378 140.159 292.552 139.917 291.832 139.432C291.116 138.947 290.554 138.258 290.145 137.364C289.74 136.47 289.537 135.409 289.537 134.182C289.537 132.955 289.74 131.894 290.145 131C290.554 130.106 291.116 129.417 291.832 128.932C292.552 128.447 293.378 128.205 294.31 128.205C294.912 128.205 295.474 128.309 295.997 128.517C296.524 128.725 296.991 129.023 297.401 129.409Z" fill="black"/>
<path d="M255.943 203V201.227L260.085 197.392C260.438 197.051 260.733 196.744 260.972 196.472C261.214 196.199 261.398 195.932 261.523 195.67C261.648 195.405 261.71 195.119 261.71 194.812C261.71 194.472 261.633 194.178 261.477 193.932C261.322 193.682 261.11 193.491 260.841 193.358C260.572 193.222 260.267 193.153 259.926 193.153C259.57 193.153 259.259 193.225 258.994 193.369C258.729 193.513 258.525 193.72 258.381 193.989C258.237 194.258 258.165 194.578 258.165 194.949H255.83C255.83 194.187 256.002 193.527 256.347 192.966C256.691 192.405 257.174 191.972 257.795 191.665C258.417 191.358 259.133 191.205 259.943 191.205C260.777 191.205 261.502 191.352 262.119 191.648C262.741 191.939 263.223 192.345 263.568 192.864C263.913 193.383 264.085 193.977 264.085 194.648C264.085 195.087 263.998 195.521 263.824 195.949C263.653 196.377 263.348 196.852 262.909 197.375C262.47 197.894 261.85 198.517 261.051 199.244L259.352 200.909V200.989H264.239V203H255.943ZM268.675 201.409L268.612 202.034C268.563 202.534 268.468 203.032 268.328 203.528C268.192 204.028 268.048 204.481 267.896 204.886C267.749 205.292 267.629 205.61 267.538 205.841H265.97C266.027 205.617 266.105 205.305 266.203 204.903C266.302 204.506 266.394 204.059 266.482 203.562C266.569 203.066 266.624 202.561 266.646 202.045L266.675 201.409H268.675ZM274.737 203.159C273.862 203.159 273.084 203.017 272.402 202.733C271.724 202.445 271.192 202.053 270.805 201.557C270.419 201.061 270.226 200.498 270.226 199.869C270.226 199.384 270.336 198.939 270.555 198.534C270.779 198.125 271.082 197.786 271.464 197.517C271.847 197.244 272.275 197.07 272.749 196.994V196.915C272.127 196.79 271.624 196.489 271.237 196.011C270.851 195.53 270.658 194.972 270.658 194.335C270.658 193.733 270.834 193.197 271.186 192.727C271.538 192.254 272.021 191.883 272.635 191.614C273.252 191.341 273.953 191.205 274.737 191.205C275.521 191.205 276.22 191.341 276.834 191.614C277.451 191.886 277.936 192.259 278.288 192.733C278.641 193.203 278.819 193.737 278.822 194.335C278.819 194.975 278.622 195.534 278.232 196.011C277.841 196.489 277.341 196.79 276.732 196.915V196.994C277.197 197.07 277.62 197.244 277.999 197.517C278.381 197.786 278.684 198.125 278.908 198.534C279.135 198.939 279.25 199.384 279.254 199.869C279.25 200.498 279.055 201.061 278.669 201.557C278.283 202.053 277.749 202.445 277.067 202.733C276.389 203.017 275.612 203.159 274.737 203.159ZM274.737 201.352C275.127 201.352 275.468 201.282 275.76 201.142C276.052 200.998 276.279 200.801 276.442 200.551C276.608 200.297 276.692 200.006 276.692 199.676C276.692 199.339 276.607 199.042 276.436 198.784C276.266 198.523 276.035 198.318 275.743 198.17C275.451 198.019 275.116 197.943 274.737 197.943C274.362 197.943 274.027 198.019 273.732 198.17C273.436 198.318 273.203 198.523 273.033 198.784C272.866 199.042 272.783 199.339 272.783 199.676C272.783 200.006 272.864 200.297 273.027 200.551C273.19 200.801 273.419 200.998 273.714 201.142C274.01 201.282 274.351 201.352 274.737 201.352ZM274.737 196.153C275.063 196.153 275.353 196.087 275.607 195.955C275.86 195.822 276.059 195.638 276.203 195.403C276.347 195.169 276.419 194.898 276.419 194.591C276.419 194.288 276.347 194.023 276.203 193.795C276.059 193.564 275.862 193.384 275.612 193.256C275.362 193.123 275.071 193.057 274.737 193.057C274.408 193.057 274.116 193.123 273.862 193.256C273.608 193.384 273.41 193.564 273.266 193.795C273.125 194.023 273.055 194.288 273.055 194.591C273.055 194.898 273.127 195.169 273.271 195.403C273.415 195.638 273.614 195.822 273.868 195.955C274.122 196.087 274.411 196.153 274.737 196.153ZM281.435 203L286.259 193.455V193.375H280.639V191.364H288.804V193.403L283.974 203H281.435ZM298.172 195.369L297.609 196.614H290.013L290.473 195.369H298.172ZM297.087 197.75L296.467 199.023H290.013L290.473 197.75H297.087ZM299.649 192.261L298.74 194.205C298.589 194.098 298.405 193.983 298.189 193.858C297.977 193.729 297.732 193.621 297.456 193.534C297.183 193.443 296.88 193.398 296.547 193.398C296.02 193.398 295.562 193.53 295.172 193.795C294.782 194.061 294.479 194.473 294.263 195.034C294.051 195.595 293.945 196.314 293.945 197.193C293.945 198.08 294.051 198.801 294.263 199.358C294.479 199.911 294.782 200.318 295.172 200.58C295.562 200.837 296.02 200.966 296.547 200.966C296.88 200.966 297.183 200.922 297.456 200.835C297.729 200.748 297.967 200.644 298.172 200.523C298.38 200.402 298.554 200.29 298.695 200.188L299.615 202.131C299.202 202.472 298.734 202.729 298.212 202.903C297.689 203.074 297.134 203.159 296.547 203.159C295.554 203.159 294.676 202.924 293.911 202.455C293.149 201.981 292.553 201.301 292.121 200.415C291.689 199.525 291.473 198.451 291.473 197.193C291.473 195.939 291.689 194.866 292.121 193.972C292.553 193.078 293.149 192.394 293.911 191.92C294.676 191.443 295.554 191.205 296.547 191.205C297.157 191.205 297.721 191.295 298.24 191.477C298.759 191.659 299.229 191.92 299.649 192.261Z" fill="black"/>
<rect x="0.5" y="0.5" width="322" height="218" stroke="black"/>
<line x1="4.37114e-08" y1="54.5" x2="323" y2="54.5" stroke="black"/>
<line x1="4.37114e-08" y1="171.5" x2="323" y2="171.5" stroke="black"/>
<path d="M43.9792 21.1667C43.9771 21.0987 43.9628 21.0316 43.9369 20.9683C43.9401 20.9529 43.9401 20.9371 43.9369 20.9217C43.9402 20.9024 43.9402 20.8826 43.9369 20.8633L40.916 16.1967C40.8583 16.1044 40.7752 16.0295 40.6761 15.98C40.5769 15.9306 40.4655 15.9087 40.3542 15.9167H24.6458C24.5432 15.9165 24.4421 15.9415 24.3523 15.9895C24.2624 16.0375 24.1867 16.1068 24.1323 16.1908L21.1115 20.8575C21.1081 20.8768 21.1081 20.8965 21.1115 20.9158C21.1082 20.9312 21.1082 20.9471 21.1115 20.9625C21.068 21.0243 21.0372 21.0936 21.0208 21.1667V37.5C21.0208 37.6547 21.0845 37.8031 21.1978 37.9125C21.3111 38.0219 21.4648 38.0833 21.625 38.0833H43.375C43.5352 38.0833 43.6889 38.0219 43.8022 37.9125C43.9155 37.8031 43.9792 37.6547 43.9792 37.5V21.1667ZM42.2875 20.5833H35.4483L34.9952 17.0833H40.0219L42.2875 20.5833ZM30.6875 21.75H34.3125V26.4167H30.6875V21.75ZM33.7808 17.0833L34.234 20.5833H30.766L31.2192 17.0833H33.7808ZM24.9781 17.0833H30.0048L29.5517 20.5833H22.7125L24.9781 17.0833ZM42.7708 36.9167H22.2292V21.75H29.4792V27C29.4792 27.1547 29.5428 27.3031 29.6561 27.4125C29.7694 27.5219 29.9231 27.5833 30.0833 27.5833H34.9167C35.0769 27.5833 35.2306 27.5219 35.3439 27.4125C35.4572 27.3031 35.5208 27.1547 35.5208 27V21.75H42.7708V36.9167Z" fill="white"/>
<path d="M31.8958 34.5833H24.0417C23.8814 34.5833 23.7278 34.6448 23.6145 34.7542C23.5012 34.8636 23.4375 35.012 23.4375 35.1667C23.4375 35.3214 23.5012 35.4697 23.6145 35.5791C23.7278 35.6885 23.8814 35.75 24.0417 35.75H31.8958C32.0561 35.75 32.2097 35.6885 32.323 35.5791C32.4363 35.4697 32.5 35.3214 32.5 35.1667C32.5 35.012 32.4363 34.8636 32.323 34.7542C32.2097 34.6448 32.0561 34.5833 31.8958 34.5833ZM24.0417 33.4167H28.2708C28.4311 33.4167 28.5847 33.3552 28.698 33.2458C28.8113 33.1364 28.875 32.988 28.875 32.8333C28.875 32.6786 28.8113 32.5303 28.698 32.4209C28.5847 32.3115 28.4311 32.25 28.2708 32.25H24.0417C23.8814 32.25 23.7278 32.3115 23.6145 32.4209C23.5012 32.5303 23.4375 32.6786 23.4375 32.8333C23.4375 32.988 23.5012 33.1364 23.6145 33.2458C23.7278 33.3552 23.8814 33.4167 24.0417 33.4167Z" fill="white"/>
</svg>
